<svg preserveAspectRatio="none" width="100%" height="100%" overflow="visible" style="display: block;" viewBox="0 0 40 40" fill="none" xmlns="http://www.w3.org/2000/svg">
<path id="Icon" d="M32 26L38 32M38 32L32 38M38 32H33.1378C31.2593 32 30.3201 32 29.4676 31.7411C28.7129 31.5119 28.0107 31.1361 27.4013 30.6353C26.713 30.0695 26.192 29.2881 25.1501 27.7251L24.6667 27M32 2L38 8M38 8L32 14M38 8H33.1378C31.2593 8 30.3201 8 29.4676 8.2589C28.7129 8.48811 28.0107 8.86388 27.4013 9.36473C26.713 9.93046 26.192 10.7119 25.1501 12.2749L14.8499 27.7251C13.808 29.2881 13.287 30.0695 12.5987 30.6353C11.9893 31.1361 11.2871 31.5119 10.5324 31.7411C9.67988 32 8.74066 32 6.86224 32H2M2 8H6.86224C8.74066 8 9.67988 8 10.5324 8.2589C11.2871 8.48811 11.9893 8.86388 12.5987 9.36473C13.287 9.93046 13.808 10.7119 14.8499 12.2749L15.3333 13" stroke="var(--stroke-0, white)" stroke-width="4" stroke-linecap="round" stroke-linejoin="round"/>
</svg>
